<?xml version="1.0" standalone="no"?>
<svg xmlns="http://www.w3.org/2000/svg" viewBox="0 0 136.368 36" width="136.368" height="36"><g fill="#000000" color="#000000" transform="translate(0 3.9999999999999982) scale(0.2800001)"><svg width="100.0" height="100.0" x="0.0" y="0.0" viewBox="0 0 100 100"><path d="M36.35,9.685c0.006-0.053,0.016-0.105,0.022-0.158l-0.238,0.238C36.207,9.739,36.278,9.711,36.35,9.685z"></path><path d="M36.765,7.639c0.196-0.682,0.445-1.341,0.746-1.973c-0.003-0.001-0.006-0.002-0.009-0.003l-6.193,6.193  c0.764-0.384,1.541-0.748,2.331-1.091L36.765,7.639z"></path><path d="M36.442,5.225c-0.298-0.12-0.595-0.236-0.89-0.349L24.546,15.881c0.044,0.018,0.09,0.035,0.134,0.052  c1.045-0.773,2.127-1.503,3.242-2.189L36.442,5.225z"></path><path d="M23.455,15.477L34.459,4.472c-0.309-0.11-0.615-0.216-0.92-0.318L22.534,15.159C22.839,15.261,23.146,15.366,23.455,15.477z  "></path><path d="M20.442,14.515c0.317,0.089,0.636,0.183,0.958,0.281L32.405,3.791c-0.322-0.099-0.642-0.192-0.958-0.281L20.442,14.515z"></path><path d="M18.255,13.966c0.331,0.072,0.667,0.151,1.004,0.235L30.264,3.196c-0.338-0.084-0.673-0.163-1.004-0.235L18.255,13.966z"></path><path d="M15.935,13.551c0.352,0.049,0.708,0.106,1.069,0.17L28.009,2.716c-0.36-0.064-0.717-0.121-1.069-0.17L15.935,13.551z"></path><path d="M13.425,13.325c0.381,0.013,0.771,0.04,1.166,0.074L25.596,2.394C25.2,2.359,24.812,2.333,24.43,2.32L13.425,13.325z"></path><path d="M19.746,2.772c-0.685,0.178-1.329,0.411-1.934,0.693l-4.489,4.489c0.467-0.999,1.076-1.889,1.838-2.651L4.156,16.309  c-5.021,5.021-3.52,15.469,2.899,27.68c4.743,9.024,12.17,19.008,21.639,28.478c1.429,1.427,2.869,2.803,4.315,4.135l-5.006,5.007  l12.558,2.145l12.557,2.144l-2.142-12.56L48.831,60.78l-4.816,4.815c-1.446-1.332-2.887-2.707-4.315-4.135  C27.678,49.438,18.947,36.586,14.824,25.926c-1.868-4.828-2.791-9.205-2.644-12.852L22.931,2.323  c-0.461,0.018-0.91,0.054-1.347,0.106l-9.298,9.298c0.078-0.64,0.19-1.254,0.343-1.84L19.746,2.772z"></path><path d="M98.777,75.699L87.771,86.705c0.033,0.397,0.055,0.789,0.066,1.173l11.004-11.004  C98.832,76.489,98.809,76.098,98.777,75.699z"></path><path d="M87.461,84.281c0.062,0.361,0.119,0.72,0.166,1.072l11.006-11.006c-0.047-0.352-0.105-0.711-0.168-1.072L87.461,84.281z"></path><path d="M86.988,82.019c0.082,0.339,0.16,0.674,0.23,1.007l11.006-11.005c-0.072-0.332-0.148-0.668-0.232-1.008L86.988,82.019z"></path><path d="M97.682,69.828c-0.088-0.318-0.182-0.638-0.279-0.961l-5.709,5.708c-0.6,1.083-1.244,2.141-1.928,3.169L97.682,69.828z"></path><path d="M97.043,67.731c-0.102-0.306-0.207-0.613-0.318-0.923l-2.561,2.561c-0.291,0.734-0.604,1.457-0.932,2.173L97.043,67.731z"></path><path d="M96.324,65.714c-0.113-0.295-0.229-0.593-0.348-0.893l-0.383,0.384c-0.176,0.605-0.363,1.206-0.562,1.801L96.324,65.714z"></path><path d="M55.797,96.183c-0.797-0.424-1.6-0.858-2.414-1.322l-2.826-1.612l2.91-2.909c-0.547,0.022-1.098,0.037-1.652,0.037  c-7.211,0-13.958-2.03-19.7-5.547l-9.263-1.581l3.112-3.112c-5.519-5.175-9.489-11.981-11.133-19.643  c-2.516-3.264-4.792-6.541-6.792-9.78C8.013,51.322,8,51.935,8,52.55c0,24.16,19.655,43.814,43.814,43.814  C53.158,96.364,54.484,96.301,55.797,96.183z"></path><path d="M38.019,10.961c-8.251,2.745-15.419,7.881-20.681,14.582c0.231,0.579,0.476,1.167,0.737,1.763  c0.64,1.465,1.359,2.955,2.147,4.461c5.082-7.698,12.899-13.439,22.057-15.826c1.517,2.19,4.046,3.629,6.907,3.629h5.257  c2.861,0,5.393-1.439,6.908-3.629c16.256,4.237,28.291,19.043,28.291,36.609c0,12.566-6.162,23.718-15.619,30.602  c2.326,1.007,4.549,1.797,6.629,2.357c9.174-8.037,14.979-19.833,14.979-32.959c0-19.342-12.598-35.794-30.02-41.589  C65.498,4.898,60.535,0,54.443,0h-5.257C43.097,0,38.133,4.898,38.019,10.961z M49.187,5.988h5.257c1.352,0,2.578,0.523,3.502,1.373  c0.002,0.004,0.004,0.01,0.004,0.014c0,0.573-2.15,1.972-6.133,1.972c-3.985,0-6.135-1.399-6.135-1.972  c0-0.004,0.002-0.01,0.003-0.014C46.608,6.511,47.836,5.988,49.187,5.988z M44.002,11.173c0-0.485,0.072-0.954,0.197-1.4  c0.532,0.486,1.226,0.893,2.024,1.22v4.429C44.882,14.482,44.002,12.93,44.002,11.173z M47.684,16.133v-4.66  c0.569,0.147,1.167,0.264,1.781,0.347v4.538h-0.278C48.664,16.357,48.16,16.278,47.684,16.133z M50.924,16.357v-4.404  c0.296,0.015,0.593,0.023,0.892,0.023c0.295,0,0.594-0.008,0.889-0.023v4.404H50.924z M54.443,16.357h-0.277V11.82  c0.615-0.083,1.213-0.199,1.781-0.347v4.66C55.471,16.278,54.967,16.357,54.443,16.357z M59.432,9.772  c0.125,0.446,0.197,0.915,0.197,1.4c0,1.757-0.881,3.309-2.221,4.248v-4.428C58.205,10.665,58.898,10.258,59.432,9.772z"></path><path d="M64.578,79.228l0.625-0.624l0.289,0.164c9.441-4.945,15.9-14.841,15.9-26.218c0-16.31-13.268-29.578-29.576-29.578  c-11.794,0-21.996,6.938-26.742,16.947c0.689,1.038,1.408,2.079,2.153,3.12c3.823-9.852,13.403-16.854,24.589-16.854  c14.535,0,26.363,11.827,26.363,26.365c0,13.657-10.439,24.921-23.758,26.234l0.543,3.175  C58.373,81.596,61.611,80.652,64.578,79.228z"></path><path d="M51.814,29.035c-1.128,0-2.044,0.915-2.044,2.045v5.258c0,1.129,0.916,2.044,2.044,2.044c1.131,0,2.045-0.916,2.045-2.044  V31.08C53.859,29.95,52.945,29.035,51.814,29.035z"></path><path d="M53.859,74.019v-5.257c0-0.936-0.627-1.722-1.484-1.966l1.355,7.935C53.812,74.508,53.859,74.27,53.859,74.019z"></path><path d="M68.027,54.594h5.258c1.129,0,2.045-0.915,2.045-2.044c0-1.13-0.916-2.045-2.045-2.045h-5.258  c-1.129,0-2.045,0.916-2.045,2.045C65.982,53.679,66.898,54.594,68.027,54.594z"></path><path d="M37.648,52.55c0-1.13-0.915-2.045-2.044-2.045h-2.584c1.098,1.312,2.236,2.617,3.409,3.915  C37.147,54.102,37.648,53.385,37.648,52.55z"></path><path d="M40.643,33.197c-0.419,0.242-0.563,0.778-0.321,1.197l2.569,4.449l-1.222-4.498c-0.055-0.345-0.045-0.687,0.02-1.016  C41.415,33.064,40.99,32.997,40.643,33.197z"></path><path d="M62.551,72.019c0.148,0,0.299-0.038,0.438-0.118c0.42-0.241,0.562-0.777,0.32-1.196l-2.629-4.553  c-0.242-0.42-0.777-0.562-1.197-0.321c-0.418,0.242-0.562,0.778-0.32,1.197l2.629,4.553C61.953,71.861,62.248,72.019,62.551,72.019z  "></path><path d="M65.096,44.881c0.162,0.281,0.457,0.438,0.76,0.438c0.148,0,0.299-0.038,0.438-0.117l4.555-2.628  c0.418-0.243,0.562-0.778,0.32-1.197c-0.242-0.419-0.777-0.562-1.197-0.321l-4.555,2.629C64.998,43.926,64.854,44.462,65.096,44.881  z"></path><path d="M38.535,44.881c0.243-0.419,0.099-0.955-0.32-1.197l-4.554-2.629c-0.419-0.241-0.956-0.098-1.197,0.321  c-0.242,0.419-0.098,0.955,0.321,1.197l4.553,2.629c0.139,0.079,0.289,0.117,0.438,0.117C38.078,45.32,38.372,45.163,38.535,44.881z  "></path><path d="M71.168,63.723c0.242-0.42,0.098-0.955-0.32-1.197l-4.555-2.629c-0.42-0.241-0.955-0.099-1.197,0.32  c-0.242,0.42-0.098,0.956,0.32,1.198l4.555,2.628c0.137,0.08,0.287,0.117,0.438,0.117C70.711,64.16,71.006,64.004,71.168,63.723z"></path><path d="M61.791,33.518l-2.629,4.554c-0.242,0.419-0.098,0.955,0.32,1.197c0.139,0.08,0.289,0.117,0.438,0.117  c0.303,0,0.598-0.157,0.76-0.438l2.629-4.553c0.242-0.419,0.1-0.956-0.32-1.197C62.568,32.955,62.033,33.099,61.791,33.518z"></path><path d="M65.619,81.698L54.613,92.703c2.826,1.611,5.574,2.972,8.203,4.069c9.732,4.061,17.807,4.458,22.033,0.231l11.006-11.006  c-0.689,0.69-1.484,1.256-2.369,1.703l4.074-4.074c0.316-0.624,0.57-1.295,0.768-2.007l-6.855,6.855  c-0.594,0.165-1.219,0.285-1.867,0.371l9.102-9.102c0.059-0.441,0.1-0.895,0.121-1.361L88.24,88.973  c-2.336,0.113-4.977-0.219-7.846-0.96C75.93,86.86,70.912,84.716,65.619,81.698z"></path><path d="M48.497,49.814c0.019-0.019,0.038-0.037,0.057-0.056l0.421-0.354l3.335-2.802l-5.295-13.446l-0.152-0.386  c-0.479-0.916-1.633-1.358-2.731-0.993c-1.1,0.364-1.761,1.409-1.598,2.429l0.108,0.399l4.809,17.687  C47.471,51.396,47.819,50.504,48.497,49.814z"></path><path d="M63.861,40.261c-0.791-0.777-2.016-0.838-2.879-0.195l-0.195,0.165l-11.109,9.331l-0.421,0.354  c-0.019,0.019-0.039,0.037-0.057,0.055c-1.416,1.441-1.395,3.758,0.047,5.173c0.304,0.297,0.646,0.527,1.01,0.698l0.27,0.114  c1.312,0.491,2.847,0.204,3.892-0.859c0.02-0.019,0.035-0.039,0.055-0.058l0.346-0.428l9.127-11.276l0.162-0.2  C64.734,42.261,64.652,41.038,63.861,40.261z M52.428,54.396c-1.02,0.338-2.12-0.214-2.458-1.234  c-0.338-1.019,0.215-2.12,1.234-2.458c1.02-0.338,2.119,0.214,2.459,1.234C54,52.956,53.447,54.058,52.428,54.396z"></path></svg></g><path fill="#000000" fill-rule="nonzero" d="M3.38 3.58L0.02 3.72L0.02 0.24L3.38 0L3.38 3.58ZM3.36 18.82L0 19.10L0 5.74L3.36 5.45L3.36 18.82ZM12.17 19.10L12.17 5.74L15.46 5.45L15.46 7.18Q16.20 6.31 17.17 5.80Q18.14 5.28 19.10 5.28L19.10 5.28Q20.62 5.28 21.10 7.39L21.10 7.39Q22.68 5.28 24.65 5.28L24.65 5.28Q25.94 5.28 26.50 6.31Q27.05 7.34 27.05 9.38L27.05 9.38L27.05 18.82L23.74 19.10L23.74 9.55Q23.74 8.90 23.50 8.53Q23.26 8.16 22.94 8.16L22.94 8.16Q22.44 8.16 22.00 8.44Q21.55 8.71 21.24 9.12L21.24 9.12L21.24 18.82L17.95 19.10L17.95 9.53Q17.95 8.86 17.75 8.51Q17.54 8.16 17.28 8.16L17.28 8.16Q16.80 8.16 16.30 8.45Q15.79 8.74 15.46 9.12L15.46 9.12L15.46 18.82L12.17 19.10ZM32.06 19.27Q31.20 19.27 30.50 18.73Q29.81 18.19 29.42 17.27Q29.04 16.34 29.04 15.19L29.04 15.19Q29.04 12.58 30.83 11.51Q32.62 10.44 34.99 10.30L34.99 10.30Q34.99 9 34.82 8.38Q34.66 7.75 34.01 7.75L34.01 7.75Q33.46 7.75 33.17 8.18Q32.88 8.62 32.81 9.29L32.81 9.29L29.52 8.71Q29.76 6.86 31.03 6.07Q32.30 5.28 34.01 5.28L34.01 5.28Q36.19 5.28 37.28 6.43Q38.38 7.58 38.38 9.43L38.38 9.43L38.38 16.42Q38.38 17.54 38.74 18.82L38.74 18.82L35.45 19.10L35.06 17.45Q34.63 18.22 33.79 18.74Q32.95 19.27 32.06 19.27L32.06 19.27ZM33.62 16.87Q34.03 16.87 34.31 16.68Q34.58 16.49 34.99 16.06L34.99 16.06L34.99 12.31Q33.79 12.31 33.07 12.96Q32.35 13.61 32.35 14.98L32.35 14.98Q32.35 15.89 32.68 16.38Q33 16.87 33.62 16.87L33.62 16.87ZM41.16 19.10L41.16 5.74L44.52 5.45L44.52 7.18Q45.55 6.26 46.55 5.77Q47.54 5.28 48.38 5.28L48.38 5.28Q49.66 5.28 50.46 6.20Q51.26 7.13 51.26 8.69L51.26 8.69L51.26 18.82L47.90 19.10L47.90 9.96Q47.90 8.16 46.68 8.16L46.68 8.16Q46.27 8.16 45.78 8.40Q45.29 8.64 44.52 9.10L44.52 9.10L44.52 18.82L41.16 19.10ZM54.10 19.10L54.10 5.74L57.46 5.45L57.46 7.18Q58.49 6.26 59.48 5.77Q60.48 5.28 61.32 5.28L61.32 5.28Q62.59 5.28 63.40 6.20Q64.20 7.13 64.20 8.69L64.20 8.69L64.20 18.82L60.84 19.10L60.84 9.96Q60.84 8.16 59.62 8.16L59.62 8.16Q59.21 8.16 58.72 8.40Q58.22 8.64 57.46 9.10L57.46 9.10L57.46 18.82L54.10 19.10ZM69.24 19.27Q68.38 19.27 67.68 18.73Q66.98 18.19 66.60 17.27Q66.22 16.34 66.22 15.19L66.22 15.19Q66.22 12.58 68.00 11.51Q69.79 10.44 72.17 10.30L72.17 10.30Q72.17 9 72 8.38Q71.83 7.75 71.18 7.75L71.18 7.75Q70.63 7.75 70.34 8.18Q70.06 8.62 69.98 9.29L69.98 9.29L66.70 8.71Q66.94 6.86 68.21 6.07Q69.48 5.28 71.18 5.28L71.18 5.28Q73.37 5.28 74.46 6.43Q75.55 7.58 75.55 9.43L75.55 9.43L75.55 16.42Q75.55 17.54 75.91 18.82L75.91 18.82L72.62 19.10L72.24 17.45Q71.81 18.22 70.97 18.74Q70.13 19.27 69.24 19.27L69.24 19.27ZM70.80 16.87Q71.21 16.87 71.48 16.68Q71.76 16.49 72.17 16.06L72.17 16.06L72.17 12.31Q70.97 12.31 70.25 12.96Q69.53 13.61 69.53 14.98L69.53 14.98Q69.53 15.89 69.85 16.38Q70.18 16.87 70.80 16.87L70.80 16.87ZM82.92 23.16Q80.23 23.16 78.74 22.40Q77.26 21.65 77.26 20.33L77.26 20.33Q77.26 19.42 77.93 18.78Q78.60 18.14 79.63 17.76L79.63 17.76Q78.72 17.50 78.26 17.09Q77.81 16.68 77.81 15.91L77.81 15.91Q77.81 14.98 78.46 14.22Q79.10 13.46 80.16 12.96L80.16 12.96Q78 11.71 78 9.48L78 9.48Q78 8.14 78.73 7.19Q79.46 6.24 80.63 5.76Q81.79 5.28 83.06 5.28L83.06 5.28Q84.96 5.28 86.42 6.29L86.42 6.29Q87.14 5.64 87.88 5.21Q88.61 4.78 89.71 4.78L89.71 4.78L89.71 7.01Q88.32 7.01 87.58 7.34L87.58 7.34Q87.86 8.09 87.97 8.52Q88.08 8.95 88.08 9.46L88.08 9.46Q88.08 11.09 86.98 12.30Q85.87 13.51 83.38 13.51L83.38 13.51L82.49 13.49Q82.27 13.46 81.96 13.46L81.96 13.46Q81.65 13.56 81.36 13.88Q81.07 14.21 81.07 14.57L81.07 14.57Q81.07 14.90 81.31 15.14Q81.55 15.38 81.91 15.43L81.91 15.43L85.75 15.86Q89.09 16.25 89.09 19.10L89.09 19.10Q89.09 21.34 87.37 22.25Q85.66 23.16 82.92 23.16L82.92 23.16ZM83.02 11.59Q83.76 11.59 84.17 11.03Q84.58 10.46 84.58 9.43L84.58 9.43Q84.58 8.38 84.14 7.85Q83.71 7.32 83.04 7.32L83.04 7.32Q82.30 7.32 81.86 7.92Q81.43 8.52 81.43 9.41L81.43 9.41Q81.43 10.22 81.79 10.91Q82.15 11.59 83.02 11.59L83.02 11.59ZM83.06 20.71Q85.80 20.71 85.80 19.22L85.80 19.22Q85.80 18.82 85.58 18.62Q85.37 18.43 84.90 18.35Q84.43 18.26 83.38 18.19L83.38 18.19L81.38 18.02Q80.95 18.17 80.64 18.54Q80.33 18.91 80.33 19.37L80.33 19.37Q80.33 20.02 81.01 20.36Q81.70 20.71 83.06 20.71L83.06 20.71ZM95.40 19.27Q93 19.27 91.73 17.36Q90.46 15.46 90.46 12.29L90.46 12.29Q90.46 9.07 91.75 7.18Q93.05 5.28 95.52 5.28L95.52 5.28Q97.87 5.28 99.12 7.18Q100.37 9.07 100.37 12.29L100.37 12.29Q100.37 12.48 100.30 12.56Q100.22 12.65 100.22 12.67L100.22 12.67L93.82 12.67Q93.82 14.23 94.22 15.52Q94.63 16.80 95.47 16.80L95.47 16.80Q96.41 16.80 96.86 15.72Q97.32 14.64 97.34 14.59L97.34 14.59L99.89 15.55Q99.38 17.28 98.28 18.28Q97.18 19.27 95.40 19.27L95.40 19.27ZM93.82 10.73L97.06 10.73Q97.06 9.29 96.67 8.45Q96.29 7.61 95.47 7.61L95.47 7.61Q95.06 7.61 94.68 8.02Q94.30 8.42 94.06 9.14Q93.82 9.86 93.82 10.73L93.82 10.73Z" transform="translate(36, 8.52)"></path></svg>